<?xml version="1.0" encoding="UTF-8"?>
<svg width="920" height="240" viewBox="0 0 920 240" fill="none" xmlns="http://www.w3.org/2000/svg">
  <defs>
    <linearGradient id="grad1" x1="0" y1="0" x2="1" y2="1">
      <stop offset="0%" stop-color="#5B5BD6"/>
      <stop offset="100%" stop-color="#7C3AED"/>
    </linearGradient>
  </defs>
  <!-- Icon -->
  <g transform="translate(20,20)">
    <rect x="0" y="0" rx="28" ry="28" width="200" height="200" fill="url(#grad1)"/>
    <!-- Curly brace left -->
    <path d="M60 60 C40 60, 40 80, 55 90 C40 100, 40 120, 60 120" stroke="#FFFFFF" stroke-width="10" fill="none" stroke-linecap="round"/>
    <!-- Curly brace right -->
    <path d="M140 60 C160 60, 160 80, 145 90 C160 100, 160 120, 140 120" stroke="#FFFFFF" stroke-width="10" fill="none" stroke-linecap="round"/>
    <!-- Bits / spark -->
    <rect x="95" y="60" width="14" height="14" rx="3" fill="#F59E0B"/>
    <rect x="115" y="82" width="12" height="12" rx="3" fill="#F59E0B"/>
    <rect x="95" y="104" width="10" height="10" rx="2" fill="#F59E0B"/>
    <rect x="77" y="86" width="8" height="8" rx="2" fill="#F59E0B"/>
  </g>

  <!-- Wordmark -->
  <g transform="translate(250,78)">
    <text x="0" y="0" font-family="Inter, ui-sans-serif, system-ui, -apple-system, Segoe UI, Roboto" font-weight="800" font-size="64" fill="#0F172A">
      Hack<tspan fill="#5B5BD6">The</tspan>Bit
    </text>
    <text x="2" y="48" font-family="Inter, ui-sans-serif, system-ui, -apple-system, Segoe UI, Roboto" font-weight="500" font-size="20" fill="#64748B">
      Learn to code • Community • Mentorship
    </text>
  </g>
</svg>
